<svg width="122" height="25" viewBox="0 0 122 25" fill="none" xmlns="http://www.w3.org/2000/svg">
<g clip-path="url(#clip0_6_7960)">
<path d="M35.5711 19.7312L30.7276 3.81949H32.8656L36.6611 17.347L40.5017 3.81949H42.6607L46.4802 17.347L50.2757 3.81949H52.4137L47.5942 19.7312H45.4112L41.5917 6.90935L37.7271 19.7312H35.5681H35.5711Z" fill="#171717"/>
<path d="M53.735 3.63632H55.963V6.0926H53.735V3.63632ZM53.8731 19.7312V8.27262H55.8069V19.7312H53.8731Z" fill="#171717"/>
<path d="M64.578 19.6381C64.0765 19.8213 63.479 19.9114 62.7823 19.9114C61.7524 19.9114 60.9296 19.6111 60.317 19.0136C59.7045 18.416 59.3952 17.5092 59.3952 16.296V9.97519H57.2572V8.26961H59.3952V4.79239H61.326V8.26961H64.3948V9.97519H61.326V16.3621C61.326 16.9537 61.4761 17.4011 61.7794 17.7043C62.0827 18.0076 62.4911 18.1608 63.0075 18.1608C63.5691 18.1608 64.0465 18.0617 64.4399 17.8635L64.575 19.6381H64.578Z" fill="#171717"/>
<path d="M66.5779 19.7312V3.63632H68.5116V10.5247C69.3434 8.9032 70.6496 8.09245 72.4213 8.09245C73.7245 8.09245 74.7664 8.4648 75.5472 9.20648C76.3279 9.94817 76.7182 10.9421 76.7182 12.1852V19.7312H74.7875V12.5486C74.7875 11.6988 74.5412 11.0382 74.0488 10.5607C73.5563 10.0833 72.8717 9.84307 71.9919 9.84307C70.9319 9.84307 70.0851 10.2905 69.4575 11.1853C68.8299 12.0801 68.5146 13.2933 68.5146 14.8217V19.7312H66.5809H66.5779Z" fill="#171717"/>
<path d="M86.4232 19.9114C84.3002 19.9114 82.4925 19.1997 81.0001 17.7734C79.5078 16.3501 78.7601 14.3472 78.7601 11.7709C78.7601 10.0292 79.1324 8.52785 79.8741 7.26968C80.6158 6.01152 81.5587 5.09267 82.7057 4.50713C83.8498 3.92459 85.1049 3.63031 86.4682 3.63031C88.2428 3.63031 89.7382 4.08373 90.9574 4.99358C92.1765 5.90342 92.9452 7.12255 93.2665 8.65397L91.2216 9.08637C90.9934 7.96333 90.4589 7.08351 89.6181 6.43791C88.7773 5.79232 87.7264 5.47102 86.4682 5.47102C84.8167 5.47102 83.4744 6.02653 82.4445 7.14056C81.4145 8.2546 80.898 9.79803 80.898 11.7678C80.898 13.7377 81.4085 15.2781 82.4325 16.3831C83.4564 17.4881 84.7927 18.0437 86.4442 18.0437C87.9155 18.0437 89.0956 17.6083 89.9905 16.7375C90.8853 15.8666 91.3477 14.7256 91.3778 13.3143H85.8316V11.5186H93.3326V19.7252H91.4468V17.2689C91.0835 18.0737 90.4379 18.7133 89.513 19.1907C88.5882 19.6682 87.5582 19.9084 86.4202 19.9084L86.4232 19.9114Z" fill="#171717"/>
<path d="M95.6778 3.63632H97.9058V6.0926H95.6778V3.63632ZM95.8129 19.7312V8.27262H97.7467V19.7312H95.8129Z" fill="#171717"/>
<path d="M108.884 8.2726H110.794V19.1847C110.794 20.623 110.298 21.7941 109.304 22.698C108.31 23.5988 107.025 24.0492 105.452 24.0492C104.119 24.0492 102.98 23.7279 102.044 23.0823C101.104 22.4367 100.551 21.602 100.383 20.569L102.248 20.2507C102.308 20.8873 102.638 21.4068 103.236 21.8091C103.833 22.2115 104.572 22.4097 105.452 22.4097C106.467 22.4097 107.292 22.1304 107.929 21.5689C108.566 21.0074 108.884 20.2807 108.884 19.3859V17.7944C108.626 18.2809 108.157 18.6742 107.476 18.9775C106.794 19.2808 106.043 19.4339 105.224 19.4339C103.512 19.4339 102.173 18.9085 101.212 17.8545C100.248 16.8005 99.7675 15.4402 99.7675 13.7737C99.7675 12.1072 100.245 10.7229 101.2 9.6689C102.155 8.61492 103.482 8.08944 105.179 8.08944C105.935 8.08944 106.656 8.25159 107.338 8.57889C108.019 8.90619 108.536 9.31757 108.884 9.81904V8.2726ZM102.746 16.6384C103.413 17.35 104.299 17.7073 105.407 17.7073C106.515 17.7073 107.395 17.353 108.055 16.6384C108.713 15.9267 109.043 14.9718 109.043 13.7737C109.043 12.5756 108.713 11.6177 108.055 10.897C107.395 10.1764 106.512 9.81603 105.407 9.81603C104.302 9.81603 103.395 10.1764 102.734 10.897C102.077 11.6177 101.746 12.5756 101.746 13.7737C101.746 14.9718 102.08 15.9267 102.746 16.6384Z" fill="#171717"/>
<path d="M117.295 8.08946C118.703 8.08946 119.841 8.47682 120.703 9.24854C121.568 10.0203 122 11.0682 122 12.3864V19.7282H120.09V17.7734C119.757 18.425 119.247 18.9445 118.556 19.3289C117.865 19.7162 117.106 19.9084 116.271 19.9084C115.133 19.9084 114.205 19.5931 113.487 18.9655C112.767 18.338 112.406 17.5212 112.406 16.5213C112.406 14.3683 114.226 13.1101 117.862 12.7468L120.09 12.4975V12.2693C120.09 11.4826 119.835 10.855 119.328 10.3926C118.82 9.93017 118.142 9.69895 117.295 9.69895C116.505 9.69895 115.853 9.91816 115.34 10.3566C114.823 10.795 114.529 11.4015 114.454 12.1762L112.658 11.8339C112.824 10.6959 113.337 9.78904 114.193 9.1044C115.049 8.41977 116.085 8.08046 117.295 8.08046V8.08946ZM116.568 18.3199C117.673 18.3199 118.538 17.9776 119.16 17.296C119.781 16.6144 120.093 15.6955 120.093 14.5454V13.9989L117.865 14.2482C115.517 14.5064 114.343 15.2571 114.343 16.4973C114.343 17.0287 114.55 17.4641 114.968 17.8035C115.385 18.1458 115.92 18.3139 116.571 18.3139L116.568 18.3199Z" fill="#171717"/>
<path d="M21.5751 11.918L14.6928 23.8361H8.45299C7.12576 23.8361 5.90063 23.1304 5.23401 21.9833V21.9773H13.6178L19.4191 11.918L17.6685 8.87319H19.8155L21.5721 11.918H21.5751Z" fill="#171717"/>
<path d="M12.7589 1.87069L6.95756 11.918L8.70818 14.9568H6.56119L4.80457 11.918L11.6929 -4.00543e-05H17.9237C19.2539 -4.00543e-05 20.4851 0.711619 21.1487 1.86469L12.7589 1.87069Z" fill="#171717"/>
<path d="M17.2421 10.9811L14.4105 15.8907L14.2724 16.1309L14.1343 16.3621L14.0292 16.5513L11.9813 16.3621L12.1134 16.1309L12.2515 15.8907L16.1641 9.11039L17.2421 10.9811Z" fill="url(#paint0_linear_6_7960)"/>
<path d="M14.134 16.3621L14.0259 16.5513L13.8938 16.7765L13.7617 17.0017L12.2543 19.6201H3.87353L0.498407 13.7797C-0.168211 12.6266 -0.168211 11.2063 0.498407 10.0563L5.2368 1.85867C5.90041 0.708609 7.13155 -4.76837e-05 8.45878 -4.76837e-05H8.96625L2.08688 11.918L5.20076 17.311H11.4345L11.7228 16.8095L11.8489 16.5903L11.981 16.3651H14.134V16.3621Z" fill="#171717"/>
<path d="M14.3174 7.603L14.3054 7.63003L14.1673 7.86124L14.0292 8.09846L10.2156 14.7106L9.18567 12.7708L11.8822 8.09846L12.0203 7.86124L12.1584 7.63003L12.4467 7.13157L14.3174 7.603Z" fill="url(#paint1_linear_6_7960)"/>
<path d="M17.9208 23.836H17.4133L24.2957 11.918L21.1818 6.51901H14.939L14.5637 7.18563L14.4376 7.39883L14.3174 7.60602L14.3054 7.63004H12.1584L12.4467 7.13458L12.5668 6.92739L12.6869 6.71419L14.1313 4.21588H22.506L25.8812 10.0593C26.5478 11.2124 26.5478 12.6327 25.8812 13.7827L21.1428 21.9773C20.4792 23.1274 19.248 23.836 17.9208 23.836Z" fill="#171717"/>
</g>
<defs>
<linearGradient id="paint0_linear_6_7960" x1="17.116" y1="10.4136" x2="13.831" y2="14.3412" gradientUnits="userSpaceOnUse">
<stop stop-color="#171717" stop-opacity="0"/>
<stop offset="1" stop-color="#171717"/>
</linearGradient>
<linearGradient id="paint1_linear_6_7960" x1="8.94545" y1="12.7978" x2="12.804" y2="9.76501" gradientUnits="userSpaceOnUse">
<stop stop-color="#171717" stop-opacity="0"/>
<stop offset="1" stop-color="#171717"/>
</linearGradient>
<clipPath id="clip0_6_7960">
<rect width="122" height="24.0493" fill="white"/>
</clipPath>
</defs>
</svg>
